<svg data-v-29081953="" xmlns="http://www.w3.org/2000/svg" viewBox="0 0 300 300"><!----><defs data-v-29081953=""><!----></defs><rect data-v-29081953="" fill="#ffffff" x="0" y="0" width="300px" height="300px" class="logo-background-square"></rect><!----><defs data-v-29081953=""><!----></defs><g data-v-29081953="" id="261381ed-c1e6-4b1a-bac3-a5a4f7394b0d" fill="#e04444" stroke="none" transform="matrix(3.0979373455047607,0,0,3.0979373455047607,17.181342881026865,-6.422591100181059)"><path d="M69.502 78.115L57.846 66.684a29.247 29.247 0 0 1-14.974 4.106 29.235 29.235 0 0 1-14.975-4.108L16.105 78.247a4.526 4.526 0 0 0-.363 6.058 4.525 4.525 0 0 0 5.991.967c2.899-1.88 12.226-6.758 20.457-6.758 11.184 0 21.719 6.694 21.825 6.762a4.511 4.511 0 0 0 2.452.724l.123-.001a4.525 4.525 0 0 0 2.912-7.884z"></path><circle cx="42.872" cy="41.373" r="7.599"></circle><path d="M42.872 14.985C28.268 14.985 16.364 26 15.793 41h16.203c.548-6 5.216-9.843 10.876-9.843C48.531 31.157 53.2 35 53.747 41h16.205c-.571-15-12.477-26.015-27.08-26.015zm-.001 9.447a2.661 2.661 0 1 1 .002-5.322 2.661 2.661 0 0 1-.002 5.322zM42.872 52.304c-5.66 0-10.328-4.325-10.876-9.843H15.793c.572 14.464 12.475 26.015 27.079 26.015 14.603 0 26.509-11.551 27.08-26.015H53.746c-.547 5.518-5.215 9.843-10.874 9.843z"></path></g><!----></svg>