<svg aria-hidden="true" style="position: absolute; width: 0; height: 0; overflow: hidden;" version="1.1" xmlns="http://www.w3.org/2000/svg" xmlns:xlink="http://www.w3.org/1999/xlink">
<defs>
<symbol id="icon-laptop" viewBox="0 0 20 20">
<path d="M19.754 15.631c-0.247-0.371-1.754-2.631-1.754-2.631v-9c0-1.102-0.9-2-2-2h-12c-1.101 0-2 0.898-2 2v9c0 0-1.507 2.26-1.754 2.631-0.246 0.369-0.246 0.582-0.246 0.869v0.5c0 0.5 0.5 1 0.999 1h18.002c0.499 0 0.999-0.5 0.999-1v-0.5c0-0.287 0-0.5-0.246-0.869zM7 16l0.6-1h4.8l0.6 1h-6zM16 12h-12v-8h12v8z"></path>
</symbol>
<symbol id="icon-home" viewBox="0 0 26 28">
<path d="M22 15.5v7.5c0 0.547-0.453 1-1 1h-6v-6h-4v6h-6c-0.547 0-1-0.453-1-1v-7.5c0-0.031 0.016-0.063 0.016-0.094l8.984-7.406 8.984 7.406c0.016 0.031 0.016 0.063 0.016 0.094zM25.484 14.422l-0.969 1.156c-0.078 0.094-0.203 0.156-0.328 0.172h-0.047c-0.125 0-0.234-0.031-0.328-0.109l-10.813-9.016-10.813 9.016c-0.109 0.078-0.234 0.125-0.375 0.109-0.125-0.016-0.25-0.078-0.328-0.172l-0.969-1.156c-0.172-0.203-0.141-0.531 0.063-0.703l11.234-9.359c0.656-0.547 1.719-0.547 2.375 0l3.813 3.187v-3.047c0-0.281 0.219-0.5 0.5-0.5h3c0.281 0 0.5 0.219 0.5 0.5v6.375l3.422 2.844c0.203 0.172 0.234 0.5 0.063 0.703z"></path>
</symbol>
<symbol id="icon-coffee" viewBox="0 0 29 28">
<path d="M26 10c0-1.656-1.344-3-3-3h-1v6h1c1.656 0 3-1.344 3-3zM0 22h28c0 2.203-1.797 4-4 4h-20c-2.203 0-4-1.797-4-4zM29 10c0 3.313-2.688 6-6 6h-1v0.5c0 1.922-1.578 3.5-3.5 3.5h-11c-1.922 0-3.5-1.578-3.5-3.5v-11.5c0-0.547 0.453-1 1-1h18c3.313 0 6 2.688 6 6z"></path>
</symbol>
<symbol id="icon-switzerland" viewBox="0 0 32 32">
<path fill="#fff" style="fill: var(--color1, #fff)" d="M30.682 14.62c-1.174 1.419-2.114 0.967-2.953-0.334-0.222-0.348-0.514-0.491-0.896-0.562-2.063-0.39-2.044-1.433-1.011-2.954 0.476-0.701 1.106-1.815 0.357-2.422-1.159-0.94-2.465-1.81-4.001-2.141-0.833 0.866-1.723 0.774-2.667 0.142-1.195-0.795-2.174-0.961-2.011 0.96 0.041 0.478-0.067 0.834-0.391 0.638-1.31-0.784-2.442 0.681-3.817 0.207-0.366-0.127-1.697-0.668-2.315 0.335-0.663 1.073-1.428 1.244-2.588 0.598-1.024-0.57-2.049 0.204-1.587 1.099 0.55 1.058-0.038 1.425-0.511 1.771-2.191 1.603-2.918 4.384-4.981 6.076-0.207 0.169-0.267 0.518-0.388 0.787-0.512 1.132 0.617 2.637-0.873 3.617-0.225 0.151 0.387 0.748 0.876 0.559 0.603-0.231 1.077-0.514 1.271-1.343 0.316-1.348 1.738-0.932 2.69-1.215 0.849-0.251 0.944 0.55 1.034 1.093 0.582 3.557 1.697 4.355 4.943 3.5 0.346-0.094 0.766-0.207 1.077-0.097 2.094 0.725 3.155-0.982 3.42-2.202 0.295-1.364 1.079-1.887 1.819-2.693 0.689 0.589 0.044 1.34 0.5 1.937 1.059 1.395 2.966 2.073 3.343 4.059 0.056 0.295 0.893 0.209 0.811-0.154-0.455-1.97 1.29-3.084 1.698-4.695 0.133-0.533-0.434-1.331 0.326-1.565 0.811-0.257 0.84 0.598 1.058 1.117 0.233 0.55 0.743 0.911 1.236 0.657 1.345-0.697 2.348-0.157 3.383 0.796-0.086-0.845 0.423-1.623-0.305-2.276-0.577-0.514-0.144-0.923 0.177-1.325 0.399-0.496 0.678-0.218 1.074 0.091 0.432 0.331 1.575 0.446 1.417 0.095-0.623-1.375 0.301-2.599 0.059-3.846-0.139-0.713-0.697-1.006-1.274-0.31z"></path>
<path fill="#fff" style="fill: var(--color1, #fff)" d="M22.101 5.804c-0.047-0.021-0.121 0.036-0.183 0.054 0.095 0.094 0.192 0.184 0.287 0.28 0.088-0.138 0.079-0.258-0.104-0.334z"></path>
<path fill="#fff" style="fill: var(--color1, #fff)" d="M22.205 6.138c-0.018 0.023-0.008 0.044-0.032 0.067l-0.002 0.003c0.002 0 0.003 0 0.005 0 0.018-0.018 0.036-0.023 0.054-0.042-0.009-0.009-0.018-0.018-0.026-0.027z"></path>
</symbol>
<symbol id="icon-messenger" viewBox="0 0 32 32">
<path d="M0 15.52c0-8.92 6.987-15.52 16-15.52s16 6.6 16 15.52-6.987 15.52-16 15.52c-1.613 0-3.173-0.213-4.627-0.613-0.1-0.028-0.214-0.044-0.333-0.044-0.188 0-0.367 0.041-0.529 0.114l0.008-0.003-3.187 1.4c-0.153 0.070-0.332 0.111-0.521 0.111-0.694 0-1.259-0.553-1.279-1.242l-0-0.002-0.093-2.853c-0.016-0.361-0.177-0.681-0.426-0.906l-0.001-0.001c-3.085-2.791-5.015-6.808-5.015-11.277 0-0.071 0.001-0.143 0.001-0.214l-0 0.011zM11.093 12.6l-4.693 7.467c-0.467 0.707 0.427 1.52 1.093 1l5.053-3.827c0.347-0.267 0.8-0.267 1.16 0l3.733 2.8c1.12 0.84 2.72 0.533 3.467-0.64l4.693-7.467c0.467-0.707-0.427-1.507-1.093-1l-5.053 3.827c-0.333 0.267-0.8 0.267-1.147 0l-3.733-2.8c-0.397-0.303-0.901-0.485-1.447-0.485-0.853 0-1.602 0.445-2.028 1.115l-0.006 0.010z"></path>
</symbol>
<symbol id="icon-arrow-up" viewBox="0 0 20 20">
<path d="M10 2.5l6.5 6.5h-3.5v8h-6v-8h-3.5l6.5-6.5z"></path>
</symbol>
<symbol id="icon-time" viewBox="0 0 20 20">
<path d="M10 20c-5.523 0-10-4.477-10-10s4.477-10 10-10v0c5.523 0 10 4.477 10 10s-4.477 10-10 10v0zM10 18c4.418 0 8-3.582 8-8s-3.582-8-8-8v0c-4.418 0-8 3.582-8 8s3.582 8 8 8v0zM9 10.41v-6.41h2v5.59l3.95 3.95-1.41 1.41-4.54-4.54z"></path>
</symbol>
<symbol id="icon-phone" viewBox="0 0 32 32">
<path d="M2.126 1.188c1.278-1.281 5.141-1.495 5.17-0.817 0.029 0.677 3.479 8.191 3.509 8.869s-2.274 2.987-2.948 3.663c-0.668 0.669 4.508 6.533 4.606 6.644 0.11 0.099 5.96 5.287 6.628 4.617 0.674-0.676 2.979-2.985 3.653-2.955 0.676 0.029 8.173 3.487 8.849 3.518 0.676 0.029 0.463 3.9-0.815 5.182-1.093 1.095-6.752 5.071-16.592-2.029-1.079-0.622-2.788-2.049-5.38-4.646-0.001-0.001-0.003-0.003-0.005-0.004-0.002-0.003-0.004-0.004-0.006-0.006s-0.004-0.004-0.006-0.006c-0.001-0.002-0.003-0.004-0.004-0.005-2.59-2.598-4.014-4.312-4.635-5.393-7.083-9.864-3.116-15.537-2.024-16.632z"></path>
</symbol>
<symbol id="icon-right-quote-alt" viewBox="0 0 32 32">
<path d="M0 4v24l12-12v-12zM20 4v24l12-12v-12z"></path>
</symbol>
<symbol id="icon-location" viewBox="0 0 32 32">
<path d="M16 0c-5.523 0-10 4.477-10 10 0 10 10 22 10 22s10-12 10-22c0-5.523-4.477-10-10-10zM16 16c-3.314 0-6-2.686-6-6s2.686-6 6-6 6 2.686 6 6-2.686 6-6 6z"></path>
</symbol>
<symbol id="icon-rocket" viewBox="0 0 32 32">
<path d="M22 2l-10 10h-6l-6 8c0 0 6.357-1.77 10.065-0.94l-10.065 12.94 13.184-10.255c1.839 4.208-1.184 10.255-1.184 10.255l8-6v-6l10-10 2-10-10 2z"></path>
</symbol>
<symbol id="icon-google" viewBox="0 0 32 32">
<path d="M16.319 13.713v5.487h9.075c-0.369 2.356-2.744 6.9-9.075 6.9-5.463 0-9.919-4.525-9.919-10.1s4.456-10.1 9.919-10.1c3.106 0 5.188 1.325 6.375 2.469l4.344-4.181c-2.788-2.612-6.4-4.188-10.719-4.188-8.844 0-16 7.156-16 16s7.156 16 16 16c9.231 0 15.363-6.494 15.363-15.631 0-1.050-0.113-1.85-0.25-2.65l-15.113-0.006z"></path>
</symbol>
<symbol id="icon-facebook" viewBox="0 0 32 32">
<path d="M19 6h5v-6h-5c-3.86 0-7 3.14-7 7v3h-4v6h4v16h6v-16h5l1-6h-6v-3c0-0.542 0.458-1 1-1z"></path>
</symbol>
<symbol id="icon-whatsapp" viewBox="0 0 32 32">
<path d="M27.281 4.65c-2.994-3-6.975-4.65-11.219-4.65-8.738 0-15.85 7.112-15.85 15.856 0 2.794 0.731 5.525 2.119 7.925l-2.25 8.219 8.406-2.206c2.319 1.262 4.925 1.931 7.575 1.931h0.006c0 0 0 0 0 0 8.738 0 15.856-7.113 15.856-15.856 0-4.238-1.65-8.219-4.644-11.219zM16.069 29.050v0c-2.369 0-4.688-0.637-6.713-1.837l-0.481-0.288-4.987 1.306 1.331-4.863-0.313-0.5c-1.325-2.094-2.019-4.519-2.019-7.012 0-7.269 5.912-13.181 13.188-13.181 3.519 0 6.831 1.375 9.319 3.862 2.488 2.494 3.856 5.8 3.856 9.325-0.006 7.275-5.919 13.188-13.181 13.188zM23.294 19.175c-0.394-0.2-2.344-1.156-2.706-1.288s-0.625-0.2-0.894 0.2c-0.262 0.394-1.025 1.288-1.256 1.556-0.231 0.262-0.462 0.3-0.856 0.1s-1.675-0.619-3.188-1.969c-1.175-1.050-1.975-2.35-2.206-2.744s-0.025-0.613 0.175-0.806c0.181-0.175 0.394-0.463 0.594-0.694s0.262-0.394 0.394-0.662c0.131-0.262 0.069-0.494-0.031-0.694s-0.894-2.15-1.219-2.944c-0.319-0.775-0.65-0.669-0.894-0.681-0.231-0.012-0.494-0.012-0.756-0.012s-0.694 0.1-1.056 0.494c-0.363 0.394-1.387 1.356-1.387 3.306s1.419 3.831 1.619 4.1c0.2 0.262 2.794 4.269 6.769 5.981 0.944 0.406 1.681 0.65 2.256 0.837 0.95 0.3 1.813 0.256 2.494 0.156 0.762-0.113 2.344-0.956 2.675-1.881s0.331-1.719 0.231-1.881c-0.094-0.175-0.356-0.275-0.756-0.475z"></path>
</symbol>
<symbol id="icon-telegram" viewBox="0 0 32 32">
<path d="M16 0c-8.838 0-16 7.162-16 16s7.162 16 16 16 16-7.163 16-16-7.163-16-16-16zM23.863 10.969l-2.625 12.369c-0.181 0.881-0.712 1.087-1.45 0.681l-4-2.956-1.919 1.869c-0.225 0.219-0.4 0.4-0.8 0.4-0.519 0-0.431-0.194-0.606-0.688l-1.363-4.475-3.956-1.231c-0.856-0.262-0.862-0.85 0.194-1.269l15.412-5.95c0.7-0.319 1.381 0.169 1.113 1.25z"></path>
</symbol>
<symbol id="icon-linkedin-square" viewBox="0 0 24 28">
<path d="M3.703 22.094h3.609v-10.844h-3.609v10.844zM7.547 7.906c-0.016-1.062-0.781-1.875-2.016-1.875s-2.047 0.812-2.047 1.875c0 1.031 0.781 1.875 2 1.875h0.016c1.266 0 2.047-0.844 2.047-1.875zM16.688 22.094h3.609v-6.219c0-3.328-1.781-4.875-4.156-4.875-1.937 0-2.797 1.078-3.266 1.828h0.031v-1.578h-3.609s0.047 1.016 0 10.844v0h3.609v-6.062c0-0.313 0.016-0.641 0.109-0.875 0.266-0.641 0.859-1.313 1.859-1.313 1.297 0 1.813 0.984 1.813 2.453v5.797zM24 6.5v15c0 2.484-2.016 4.5-4.5 4.5h-15c-2.484 0-4.5-2.016-4.5-4.5v-15c0-2.484 2.016-4.5 4.5-4.5h15c2.484 0 4.5 2.016 4.5 4.5z"></path>
</symbol>
<symbol id="icon-check-square" viewBox="0 0 24 28">
<path d="M10.703 20.297l9.594-9.594c0.391-0.391 0.391-1.016 0-1.406l-1.594-1.594c-0.391-0.391-1.016-0.391-1.406 0l-7.297 7.297-3.297-3.297c-0.391-0.391-1.016-0.391-1.406 0l-1.594 1.594c-0.391 0.391-0.391 1.016 0 1.406l5.594 5.594c0.391 0.391 1.016 0.391 1.406 0zM24 6.5v15c0 2.484-2.016 4.5-4.5 4.5h-15c-2.484 0-4.5-2.016-4.5-4.5v-15c0-2.484 2.016-4.5 4.5-4.5h15c2.484 0 4.5 2.016 4.5 4.5z"></path>
</symbol>
<symbol id="icon-laughing-face" viewBox="0 0 32 32">
<path d="M16.5 29c-6.904 0-12.5-5.596-12.5-12.5s5.596-12.5 12.5-12.5c6.904 0 12.5 5.596 12.5 12.5s-5.596 12.5-12.5 12.5zM18.672 13.793l0.707 0.707 2.121-2.121 2.121 2.121 0.707-0.707-2.828-2.828-2.828 2.828zM8.672 13.793l0.707 0.707 2.121-2.121 2.121 2.121 0.707-0.707-2.828-2.828-2.828 2.828zM9 19c0 0 1 6 7.5 6s7.5-6 7.5-6h-15z"></path>
</symbol>
<symbol id="icon-clipboard-checked" viewBox="0 0 32 32">
<path d="M13 5v-1.002c0-1.1 0.898-1.998 2.005-1.998h0.99c1.111 0 2.005 0.895 2.005 1.998v1.002h2.004c0.551 0 0.996 0.447 0.996 0.999v1.002c0 0.556-0.446 0.999-0.996 0.999h-9.009c-0.551 0-0.996-0.447-0.996-0.999v-1.002c0-0.556 0.446-0.999 0.996-0.999h2.004zM12 4h-0.997c-1.104 0-2 0.891-2.003 2h-1.003c-1.103 0-1.997 0.89-1.997 2.004v20.993c0 1.107 0.891 2.004 1.997 2.004h15.005c1.103 0 1.997-0.89 1.997-2.004v-20.993c0-1.107-0.891-2.004-1.997-2.004h-1.003c-0.003-1.105-0.895-2-2.003-2h-0.997c-0.001-1.657-1.35-3-3.009-3h-0.982c-1.661 0-3.008 1.338-3.009 3v0 0zM22 7h1c0.545 0 1 0.449 1 1.003v20.994c0 0.564-0.448 1.003-1 1.003h-15c-0.545 0-1-0.449-1-1.003v-20.994c0-0.564 0.448-1.003 1-1.003h1c0.003 1.105 0.895 2 2.003 2h8.994c1.104 0 2-0.891 2.003-2v0 0zM15.5 5c0.276 0 0.5-0.224 0.5-0.5s-0.224-0.5-0.5-0.5c-0.276 0-0.5 0.224-0.5 0.5s0.224 0.5 0.5 0.5v0zM14.254 23.685l7.778-7.778-0.707-0.707-7.071 7.071-3.743-3.743-0.707 0.707 4.45 4.45z"></path>
</symbol>
</defs>
</svg>
